<svg width="32" height="32" viewBox="0 0 32 32" fill="none" xmlns="http://www.w3.org/2000/svg">
  <path d="M25 16C25 21.5228 20.5228 26 15 26C9.47715 26 5 21.5228 5 16C5 10.4772 9.47715 6 15 6C16.9238 6 18.7061 6.54344 20.2183 7.48206C18.2584 8.78363 17 10.9922 17 13.5C17 17.6421 20.3579 21 24.5 21C24.668 21 24.8348 20.9945 25 20.9837C24.9946 22.8433 24.9919 23.3619 25 16Z" fill="#fbbf24"/>
  <path d="M23 7L23.75 9.25L26 10L23.75 10.75L23 13L22.25 10.75L20 10L22.25 9.25L23 7Z" fill="#fbbf24"/>
</svg>
